<svg width="12" height="12" viewBox="0 0 12 12" fill="none" xmlns="http://www.w3.org/2000/svg">
<path d="M5 6.07513H6.75V6.71226C6.75 6.82661 6.8 6.90421 6.9 6.94505C7 6.98589 7.09167 6.96547 7.175 6.88379L8.15 5.9281C8.25 5.83009 8.3 5.71573 8.3 5.58504C8.3 5.45435 8.25 5.33999 8.15 5.24197L7.175 4.28629C7.09167 4.20461 7 4.18419 6.9 4.22503C6.8 4.26587 6.75 4.34347 6.75 4.45782V5.09495H4.5C4.35833 5.09495 4.23967 5.14183 4.144 5.2356C4.048 5.3297 4 5.44618 4 5.58504V7.05532C4 7.19418 4.048 7.3105 4.144 7.40427C4.23967 7.49837 4.35833 7.54541 4.5 7.54541C4.64167 7.54541 4.7605 7.49837 4.8565 7.40427C4.95217 7.3105 5 7.19418 5 7.05532V6.07513ZM6 10.9761C5.875 10.9761 5.752 10.9516 5.631 10.9026C5.51033 10.8535 5.4 10.78 5.3 10.682L1.3 6.76126C1.2 6.66325 1.125 6.5551 1.075 6.43682C1.025 6.31822 1 6.19766 1 6.07513C1 5.95261 1.025 5.83205 1.075 5.71344C1.125 5.59517 1.2 5.48702 1.3 5.389L5.3 1.46825C5.4 1.37023 5.51033 1.29672 5.631 1.24771C5.752 1.1987 5.875 1.17419 6 1.17419C6.125 1.17419 6.248 1.1987 6.369 1.24771C6.48967 1.29672 6.6 1.37023 6.7 1.46825L10.7 5.389C10.8 5.48702 10.875 5.59517 10.925 5.71344C10.975 5.83205 11 5.95261 11 6.07513C11 6.19766 10.975 6.31822 10.925 6.43682C10.875 6.5551 10.8 6.66325 10.7 6.76126L6.7 10.682C6.6 10.78 6.48967 10.8535 6.369 10.9026C6.248 10.9516 6.125 10.9761 6 10.9761Z" fill="#0033A0"/>
</svg>
