<svg width="24" height="24" viewBox="0 0 24 24" fill="none" xmlns="http://www.w3.org/2000/svg">
<g clip-path="url(#clip0_130_243)">
<path d="M11.5515 4.5C6.77624 4.5 2.69815 7.61 1.0459 12C2.69815 16.39 6.77624 19.5 11.5515 19.5C16.3268 19.5 20.4049 16.39 22.0571 12C20.4049 7.61 16.3268 4.5 11.5515 4.5ZM11.5515 17C8.91556 17 6.77624 14.76 6.77624 12C6.77624 9.24 8.91556 7 11.5515 7C14.1875 7 16.3268 9.24 16.3268 12C16.3268 14.76 14.1875 17 11.5515 17ZM11.5515 9C9.96612 9 8.68635 10.34 8.68635 12C8.68635 13.66 9.96612 15 11.5515 15C13.1369 15 14.4167 13.66 14.4167 12C14.4167 10.34 13.1369 9 11.5515 9Z" fill="black"/>
</g>
<defs>
<clipPath id="clip0_130_243">
<rect width="22.9213" height="24" fill="white" transform="translate(0.0908203)"/>
</clipPath>
</defs>
</svg>
