<svg width="32" height="33" viewBox="0 0 32 33" fill="none" xmlns="http://www.w3.org/2000/svg">
<path d="M31.5 16.5C31.5 24.9194 24.5676 31.7576 16 31.7576C7.43236 31.7576 0.5 24.9194 0.5 16.5C0.5 8.08065 7.43236 1.24243 16 1.24243C24.5676 1.24243 31.5 8.08065 31.5 16.5Z" fill="#0033A0" stroke="#0033A0"/>
<path d="M18.4953 17.6067L15.6381 14.7741L17.7524 12.7106L17.2 12.1666L13.5619 15.7496C13.4096 15.8997 13.2318 15.9747 13.0286 15.9747C12.8254 15.9747 12.6477 15.8997 12.4953 15.7496C12.3429 15.5995 12.2667 15.4213 12.2667 15.215C12.2667 15.0086 12.3429 14.8304 12.4953 14.6803L16.1143 11.1161C16.4191 10.816 16.7778 10.6659 17.1905 10.6659C17.6032 10.6659 17.9619 10.816 18.2667 11.1161L18.8191 11.6601L19.7715 10.7222C19.9239 10.5721 20.1048 10.4971 20.3143 10.4971C20.5239 10.4971 20.7048 10.5721 20.8572 10.7222L22.6286 12.4668C22.781 12.6168 22.8572 12.7951 22.8572 13.0014C22.8572 13.2077 22.781 13.386 22.6286 13.536L18.4953 17.6067ZM9.9048 24.0036C9.68893 24.0036 9.50798 23.9317 9.36195 23.7878C9.21591 23.644 9.1429 23.4658 9.1429 23.2532V21.8088C9.1429 21.6087 9.18099 21.4179 9.25718 21.2366C9.33337 21.0553 9.44131 20.8958 9.58099 20.7583L14.5524 15.8434L17.4286 18.6572L12.4381 23.5721C12.2985 23.7097 12.1365 23.816 11.9524 23.891C11.7683 23.966 11.5746 24.0036 11.3715 24.0036H9.9048Z" fill="white"/>
</svg>
