<svg width="24" height="25" viewBox="0 0 24 25" fill="none" xmlns="http://www.w3.org/2000/svg">
<path opacity="0.42" d="M23.75 12.4999C23.75 18.8853 18.493 24.0681 12 24.0681C5.50704 24.0681 0.25 18.8853 0.25 12.4999C0.25 6.1146 5.50704 0.931763 12 0.931763C18.493 0.931763 23.75 6.1146 23.75 12.4999Z" fill="white" stroke="#0033A0" stroke-width="0.5"/>
<path d="M11.8571 18.5713C12.4857 18.5713 13 18.057 13 17.4285H10.7143C10.7143 18.057 11.2229 18.5713 11.8571 18.5713ZM15.2857 15.1428V12.2856C15.2857 10.5313 14.3486 9.06275 12.7143 8.67418V8.28561C12.7143 7.81132 12.3314 7.42847 11.8571 7.42847C11.3829 7.42847 11 7.81132 11 8.28561V8.67418C9.36001 9.06275 8.42858 10.5256 8.42858 12.2856V15.1428L7.28572 16.2856V16.857H16.4286V16.2856L15.2857 15.1428Z" fill="#0033A0"/>
</svg>
