<svg width="24" height="25" viewBox="0 0 24 25" fill="none" xmlns="http://www.w3.org/2000/svg">
<path opacity="0.42" d="M23.75 12.4999C23.75 18.8853 18.493 24.0681 12 24.0681C5.50704 24.0681 0.25 18.8853 0.25 12.4999C0.25 6.1146 5.50704 0.931763 12 0.931763C18.493 0.931763 23.75 6.1146 23.75 12.4999Z" fill="white" stroke="#0033A0" stroke-width="0.5"/>
<g clip-path="url(#clip0_178_305)">
<path d="M11.8571 12.8571C13.12 12.8571 14.1428 11.8342 14.1428 10.5714C14.1428 9.3085 13.12 8.28564 11.8571 8.28564C10.5943 8.28564 9.57142 9.3085 9.57142 10.5714C9.57142 11.8342 10.5943 12.8571 11.8571 12.8571ZM11.8571 13.9999C10.3314 13.9999 7.28571 14.7656 7.28571 16.2856V17.4285H16.4286V16.2856C16.4286 14.7656 13.3828 13.9999 11.8571 13.9999Z" fill="#0033A0"/>
</g>
<defs>
<clipPath id="clip0_178_305">
<rect width="13.7143" height="13.7143" fill="white" transform="translate(5 5.99988)"/>
</clipPath>
</defs>
</svg>
