<svg width="25" height="24" viewBox="0 0 25 24" fill="none" xmlns="http://www.w3.org/2000/svg">
<g clip-path="url(#clip0_40_25)">
<path d="M15.8601 14H15.0701L14.7901 13.73C15.7701 12.59 16.3601 11.11 16.3601 9.5C16.3601 5.91 13.4501 3 9.86011 3C6.27011 3 3.36011 5.91 3.36011 9.5C3.36011 13.09 6.27011 16 9.86011 16C11.4701 16 12.9501 15.41 14.0901 14.43L14.3601 14.71V15.5L19.3601 20.49L20.8501 19L15.8601 14ZM9.86011 14C7.37011 14 5.36011 11.99 5.36011 9.5C5.36011 7.01 7.37011 5 9.86011 5C12.3501 5 14.3601 7.01 14.3601 9.5C14.3601 11.99 12.3501 14 9.86011 14Z" fill="#0033A0"/>
</g>
<defs>
<clipPath id="clip0_40_25">
<rect x="0.360107" width="24" height="24" rx="6" fill="white"/>
</clipPath>
</defs>
</svg>
