<svg width="12" height="12" viewBox="0 0 12 12" fill="none" xmlns="http://www.w3.org/2000/svg">
<g clip-path="url(#clip0_123_486)">
<path d="M1 10H2C2.275 10 2.5 9.775 2.5 9.5V5C2.5 4.725 2.275 4.5 2 4.5H1V10ZM10.915 6.44C10.97 6.315 11 6.18 11 6.04V5.5C11 4.95 10.55 4.5 10 4.5H7.25L7.71 2.175C7.735 2.065 7.72 1.945 7.67 1.845C7.555 1.62 7.41 1.415 7.23 1.235L7 1L3.795 4.205C3.605 4.395 3.5 4.65 3.5 4.915V8.835C3.5 9.475 4.025 10 4.67 10H8.725C9.075 10 9.405 9.815 9.585 9.515L10.915 6.44Z" fill="#0033A0"/>
</g>
<defs>
<clipPath id="clip0_123_486">
<rect width="12" height="12" fill="white"/>
</clipPath>
</defs>
</svg>
