<svg width="40" height="40" viewBox="0 0 40 40" fill="none" xmlns="http://www.w3.org/2000/svg">
<g clip-path="url(#clip0_85_537)">
<path d="M39.6939 20C39.6939 8.9543 30.8081 0 19.8469 0C8.88578 0 0 8.9543 0 20C0 31.0457 8.88578 40 19.8469 40C30.8081 40 39.6939 31.0457 39.6939 20Z" fill="#F2F2F2"/>
<mask id="mask0_85_537" style="mask-type:luminance" maskUnits="userSpaceOnUse" x="9" y="10" width="21" height="20">
<path d="M29.7704 10H9.92346V30H29.7704V10Z" fill="white"/>
</mask>
<g mask="url(#mask0_85_537)">
<path d="M29.3735 20.2273C29.3735 19.5182 29.3103 18.8364 29.193 18.1818H19.8469V22.05H25.1875C24.9575 23.3 24.2584 24.3591 23.2074 25.0682V27.5773H26.4145C28.2909 25.8364 29.3735 23.2727 29.3735 20.2273Z" fill="#4285F4"/>
<path d="M19.847 30C22.5263 30 24.7726 29.1045 26.4144 27.5773L23.2073 25.0682C22.3188 25.6682 21.1821 26.0227 19.847 26.0227C17.2623 26.0227 15.0747 24.2636 14.2943 21.9H10.9789V24.4909C12.6118 27.7591 15.9678 30 19.847 30Z" fill="#34A853"/>
<path d="M14.2943 21.9C14.0958 21.3 13.9831 20.6591 13.9831 20C13.9831 19.3409 14.0958 18.7 14.2943 18.1V15.5091H10.9789C10.3069 16.8591 9.92346 18.3864 9.92346 20C9.92346 21.6136 10.3069 23.1409 10.9789 24.4909L14.2943 21.9Z" fill="#FBBC04"/>
<path d="M19.847 13.9773C21.3038 13.9773 22.6119 14.4818 23.6404 15.4727L26.4866 12.6045C24.7681 10.9909 22.5217 10 19.847 10C15.9678 10 12.6118 12.2409 10.9789 15.5091L14.2943 18.1C15.0747 15.7364 17.2623 13.9773 19.847 13.9773Z" fill="#E94235"/>
</g>
</g>
<defs>
<clipPath id="clip0_85_537">
<rect width="39.6939" height="40" rx="19.8469" fill="white"/>
</clipPath>
</defs>
</svg>
